<svg width="22" height="22" viewBox="0 0 22 22" fill="none" xmlns="http://www.w3.org/2000/svg">
<circle cx="11" cy="11" r="10.5" stroke="#D9D9D9"/>
<path d="M0.5 10L2 5.5L4 5V8.88977L2.5 12L0.5 10Z" fill="#D9D9D9"/>
<path d="M21.5 10.5L19.5 4.5L18.5 5V9L20.5 12L21.5 10.5Z" fill="#D9D9D9"/>
<path d="M3 18V15.5L7 17L9 20.5L8 21L3 18Z" fill="#D9D9D9"/>
<path d="M19 17.5L19.5 16L15.5 17L13.5 20.5L14.5 21L19 17.5Z" fill="#D9D9D9"/>
<path d="M13.5 1L15 2.5L11.5 3.5L7.5 2.5L9 1H13.5Z" fill="#D9D9D9"/>
<path d="M7.55698 10.1709C7.52295 10.0689 7.55807 9.95645 7.64415 9.89189L11.5 7L15.5 10L14 14.5H9L7.55698 10.1709Z" fill="#D9D9D9"/>
<path d="M3.04109 8.75352L3.77166 8.81438C5.24369 8.93702 6.6788 9.33943 8 10" stroke="#D9D9D9" stroke-width="0.5"/>
<path d="M19 8.5C17.674 8.8315 16.4043 9.35741 15.2323 10.0607L14.5 10.5" stroke="#D9D9D9" stroke-width="0.5"/>
<path d="M19 5.47297C17.6749 4.16586 16.152 3.076 14.4872 2.24361L14 2" stroke="#D9D9D9" stroke-width="0.5"/>
<path d="M3.5 5.99994C4.47997 4.46425 5.8745 3.23722 7.52243 2.46067L8.5 2" stroke="#D9D9D9" stroke-width="0.5"/>
<path d="M11.5 3L11.5 5.5L11.5 7.49996" stroke="#D9D9D9" stroke-width="0.5"/>
<path d="M2.24515 10.9509L2.30489 11.5485C2.43465 12.8464 2.69107 14.1285 3.07049 15.3764L3.24515 15.9509" stroke="#D9D9D9" stroke-width="0.5"/>
<path d="M20.5 11L20.2774 12.7811C20.0938 14.2497 19.6619 15.6763 19 16.9999" stroke="#D9D9D9" stroke-width="0.5"/>
<path d="M9.49998 13.9999L8.85294 14.8627C8.28503 15.6199 7.66408 16.3359 6.99476 17.0052L6.5 17.5" stroke="#D9D9D9" stroke-width="0.5"/>
<path d="M13.4999 13.4999L14.0513 14.6026C14.6797 15.8593 15.5065 17.0065 16.5 18" stroke="#D9D9D9" stroke-width="0.5"/>
<path d="M8.00002 20.0576C9.95432 20.7091 12.0599 20.7549 14.0406 20.1889L14.5 20.0577" stroke="#D9D9D9" stroke-width="0.5"/>
</svg>
