<svg width="40" height="40" viewBox="0 0 40 40" fill="none" xmlns="http://www.w3.org/2000/svg">
<path d="M35.1217 4.13315L34.0027 11.969L15.6522 28.7474L17.8681 31.0736L15.5457 32.7314L12.5535 29.5902L6.71893 35.3427L7.50636 36.1694L5.82674 36.8636L3.14949 34.053L3.88418 32.3669L4.67161 33.1935L10.5062 27.4409L7.35193 24.1296L9.05342 21.8201L11.2426 24.1183L27.8607 5.5213L35.1217 4.13315Z" fill="#D9D9D9"/>
<path d="M4.87828 4.13315L5.99731 11.969L24.3478 28.7474L22.1319 31.0736L24.4543 32.7314L27.4465 29.5902L33.2811 35.3427L32.4936 36.1694L34.1733 36.8636L36.8505 34.053L36.1158 32.3669L35.3284 33.1935L29.4938 27.4409L32.6481 24.1296L30.9466 21.8201L28.7574 24.1183L12.1393 5.5213L4.87828 4.13315Z" fill="#D9D9D9"/>
</svg>
