<svg width="30" height="35" viewBox="0 0 30 35" fill="none" xmlns="http://www.w3.org/2000/svg">
<path d="M6.82767 28.6364C10.8702 28.6364 13.6178 24.5315 12.0767 20.7942L11.1725 18.6014L10.138 18.1119V17.1329H8.68974V15.6643H9.72422C7.81039 12.2683 6.55479 8.54151 6.02337 4.67971L5.815 3.16547C5.58468 1.49177 6.88523 0 8.5747 0H21.0328C22.9172 0 24.3561 1.68292 24.0634 3.54438L23.8668 4.79384C23.27 8.58876 22.0571 12.2606 20.2759 15.6643H21.3104V17.1329H19.8622V18.1119L19.0346 18.6014L18.0774 20.3208C16.0016 24.0497 18.6978 28.6364 22.9656 28.6364V32.3077H24.6208V35H5.37939V32.3077H6.82767V28.6364Z" fill="#D9D9D9"/>
<path d="M0 3.44615C0 2.37919 0.907987 1.53786 1.97185 1.61905L6.41379 1.95807V4.16087L3.3581 3.64446C2.68382 3.53051 2.06897 4.05018 2.06897 4.73402V6.15965C2.06897 9.82925 5.56825 12.4875 9.10345 11.5035L10.5517 14.4406C4.72417 14.4406 0 9.71642 0 3.88886V3.44615Z" fill="#D9D9D9"/>
<path d="M30 3.44615C30 2.37919 29.092 1.53786 28.0281 1.61905L23.5862 1.95807V4.16087L26.6419 3.64446C27.3162 3.53051 27.931 4.05018 27.931 4.73402V6.15965C27.931 9.82925 24.4317 12.4875 20.8966 11.5035L19.4483 14.4406C25.2758 14.4406 30 9.71642 30 3.88886V3.44615Z" fill="#D9D9D9"/>
</svg>
