<svg width="22" height="14" viewBox="0 0 22 14" fill="none" xmlns="http://www.w3.org/2000/svg">
<path d="M15.5 1C17.0309 1 18 2.0345 18 3C18 3.9655 17.0309 5 15.5 5C13.9691 5 13 3.9655 13 3C13 2.0345 13.9691 1 15.5 1Z" stroke="#D9D9D9" stroke-width="2"/>
<path d="M15.333 7.66669H15.9258C17.9746 7.66669 19.6899 9.08891 20.1416 10.9997H11.1172C11.5688 9.08896 13.2843 7.66684 15.333 7.66669Z" stroke="#D9D9D9" stroke-width="2"/>
<path d="M7 1C8.78646 1 10 2.24054 10 3.5C10 4.75946 8.78646 6 7 6C5.21354 6 4 4.75946 4 3.5C4 2.24054 5.21354 1 7 1Z" stroke="#E9E9E9" stroke-width="2"/>
<path d="M6 8.99994H7.37012C9.78902 8.99994 11.8062 10.7178 12.2695 12.9999H1.10059C1.5639 10.7178 3.58108 8.99994 6 8.99994Z" stroke="#E9E9E9" stroke-width="2"/>
</svg>
