<svg width="20" height="20" viewBox="0 0 20 20" fill="none" xmlns="http://www.w3.org/2000/svg">
<path d="M10 0C8.02219 0 6.08879 0.58649 4.4443 1.6853C2.79981 2.78412 1.51809 4.3459 0.761209 6.17316C0.00433284 8.00043 -0.1937 10.0111 0.192152 11.9509C0.578004 13.8907 1.53041 15.6725 2.92894 17.0711C4.32746 18.4696 6.10929 19.422 8.0491 19.8078C9.98891 20.1937 11.9996 19.9957 13.8268 19.2388C15.6541 18.4819 17.2159 17.2002 18.3147 15.5557C19.4135 13.9112 20 11.9778 20 10C19.9972 7.34869 18.9427 4.80678 17.068 2.93202C15.1932 1.05727 12.6513 0.00279983 10 0ZM17.3577 14.175H14.125L13.2346 12.9481L14.449 9.41154L15.8913 8.94134L18.4144 10.8769C18.295 12.0377 17.9351 13.161 17.3577 14.175ZM1.58847 10.8769L4.10673 8.94231L5.54904 9.4125L6.76346 12.949L5.875 14.175H2.64231C2.06418 13.1611 1.70364 12.0379 1.58366 10.8769H1.58847ZM2.55 6.00769L3.07981 7.79615L1.60673 8.92019C1.73733 7.90033 2.05413 6.91312 2.54135 6.00769H2.55ZM8.17308 12.3077L7.07116 9.10096L10 7.0875L12.9288 9.10096L11.8269 12.3077H8.17308ZM16.9298 7.79615L17.4596 6.00769C17.9468 6.91312 18.2636 7.90033 18.3942 8.92019L16.9298 7.79615ZM16.3337 4.39423L15.4192 7.47884L13.9702 7.94904L10.7692 5.74904V4.25096L13.5663 2.32788C14.6199 2.82057 15.5623 3.5238 16.3337 4.39423ZM11.7375 1.71827L10 2.9125L8.2625 1.71827C9.40843 1.47852 10.5916 1.47852 11.7375 1.71827ZM6.43366 2.32788L9.23077 4.25096V5.74904L6.03077 7.94904L4.58173 7.47884L3.66731 4.39423C4.43868 3.5238 5.38013 2.82057 6.43366 2.32788ZM3.76443 15.7135H5.72308L6.4125 17.6625C5.41137 17.1914 4.51185 16.5293 3.76443 15.7135ZM8.26923 18.2817L7.12693 15.0683L8.01443 13.8462H11.9856L12.8731 15.0683L11.7356 18.2817C10.591 18.5216 9.40904 18.5216 8.26443 18.2817H8.26923ZM13.5923 17.6625L14.2817 15.7135H16.2404C15.4915 16.5298 14.5904 17.1919 13.5875 17.6625H13.5923Z" fill="white"/>
</svg>
