<svg width="54" height="46" viewBox="0 0 54 46" fill="none" xmlns="http://www.w3.org/2000/svg">
<circle cx="2.5" cy="15.5021" r="2.25" stroke="white" stroke-width="0.5"/>
<mask id="path-2-inside-1_14_44" fill="white">
<path d="M38.2678 10.2698C37.8492 10.6885 37.2956 10.9449 36.7056 10.9936C36.1156 11.0423 35.5275 10.88 35.0459 10.5357C34.5643 10.1914 34.2206 9.6873 34.0759 9.11326C33.9311 8.53922 33.9948 7.93245 34.2556 7.40096C34.5163 6.86948 34.9572 6.44776 35.4997 6.2109C36.0423 5.97404 36.6513 5.9374 37.2183 6.1075C37.7854 6.2776 38.2736 6.64341 38.5962 7.1398C38.9188 7.63619 39.0548 8.23095 38.9799 8.8182L38.441 8.7495C38.4996 8.28987 38.3932 7.82436 38.1407 7.43584C37.8882 7.04732 37.506 6.761 37.0622 6.62787C36.6184 6.49473 36.1418 6.52341 35.7171 6.7088C35.2925 6.89419 34.9474 7.22426 34.7433 7.64025C34.5392 8.05624 34.4894 8.53115 34.6027 8.98044C34.7159 9.42974 34.985 9.82425 35.3619 10.0938C35.7388 10.3633 36.1991 10.4903 36.6609 10.4522C37.1227 10.4141 37.556 10.2133 37.8836 9.88569L38.2678 10.2698Z"/>
</mask>
<path d="M38.2678 10.2698C37.8492 10.6885 37.2956 10.9449 36.7056 10.9936C36.1156 11.0423 35.5275 10.88 35.0459 10.5357C34.5643 10.1914 34.2206 9.6873 34.0759 9.11326C33.9311 8.53922 33.9948 7.93245 34.2556 7.40096C34.5163 6.86948 34.9572 6.44776 35.4997 6.2109C36.0423 5.97404 36.6513 5.9374 37.2183 6.1075C37.7854 6.2776 38.2736 6.64341 38.5962 7.1398C38.9188 7.63619 39.0548 8.23095 38.9799 8.8182L38.441 8.7495C38.4996 8.28987 38.3932 7.82436 38.1407 7.43584C37.8882 7.04732 37.506 6.761 37.0622 6.62787C36.6184 6.49473 36.1418 6.52341 35.7171 6.7088C35.2925 6.89419 34.9474 7.22426 34.7433 7.64025C34.5392 8.05624 34.4894 8.53115 34.6027 8.98044C34.7159 9.42974 34.985 9.82425 35.3619 10.0938C35.7388 10.3633 36.1991 10.4903 36.6609 10.4522C37.1227 10.4141 37.556 10.2133 37.8836 9.88569L38.2678 10.2698Z" stroke="white" mask="url(#path-2-inside-1_14_44)"/>
<mask id="path-3-inside-2_14_44" fill="white">
<path d="M53.2678 38.2698C52.8492 38.6885 52.2956 38.9449 51.7056 38.9936C51.1156 39.0423 50.5275 38.88 50.0459 38.5357C49.5643 38.1914 49.2206 37.6873 49.0759 37.1133C48.9311 36.5392 48.9948 35.9325 49.2556 35.401C49.5163 34.8695 49.9572 34.4478 50.4997 34.2109C51.0423 33.974 51.6513 33.9374 52.2183 34.1075C52.7854 34.2776 53.2736 34.6434 53.5962 35.1398C53.9188 35.6362 54.0548 36.231 53.9799 36.8182L53.441 36.7495C53.4996 36.2899 53.3932 35.8244 53.1407 35.4358C52.8882 35.0473 52.506 34.761 52.0622 34.6279C51.6184 34.4947 51.1418 34.5234 50.7171 34.7088C50.2925 34.8942 49.9474 35.2243 49.7433 35.6402C49.5392 36.0562 49.4894 36.5312 49.6027 36.9804C49.7159 37.4297 49.985 37.8243 50.3619 38.0938C50.7388 38.3633 51.1991 38.4903 51.6609 38.4522C52.1227 38.4141 52.556 38.2133 52.8836 37.8857L53.2678 38.2698Z"/>
</mask>
<path d="M53.2678 38.2698C52.8492 38.6885 52.2956 38.9449 51.7056 38.9936C51.1156 39.0423 50.5275 38.88 50.0459 38.5357C49.5643 38.1914 49.2206 37.6873 49.0759 37.1133C48.9311 36.5392 48.9948 35.9325 49.2556 35.401C49.5163 34.8695 49.9572 34.4478 50.4997 34.2109C51.0423 33.974 51.6513 33.9374 52.2183 34.1075C52.7854 34.2776 53.2736 34.6434 53.5962 35.1398C53.9188 35.6362 54.0548 36.231 53.9799 36.8182L53.441 36.7495C53.4996 36.2899 53.3932 35.8244 53.1407 35.4358C52.8882 35.0473 52.506 34.761 52.0622 34.6279C51.6184 34.4947 51.1418 34.5234 50.7171 34.7088C50.2925 34.8942 49.9474 35.2243 49.7433 35.6402C49.5392 36.0562 49.4894 36.5312 49.6027 36.9804C49.7159 37.4297 49.985 37.8243 50.3619 38.0938C50.7388 38.3633 51.1991 38.4903 51.6609 38.4522C52.1227 38.4141 52.556 38.2133 52.8836 37.8857L53.2678 38.2698Z" stroke="white" mask="url(#path-3-inside-2_14_44)"/>
<path d="M7.24688 11.2306C7.0481 11.4222 7.04236 11.7388 7.23404 11.9376C7.42573 12.1363 7.74226 12.1421 7.94103 11.9504L7.24688 11.2306ZM31.2468 7.43694C31.487 7.30063 31.5711 6.99545 31.4348 6.75529L29.2136 2.84171C29.0773 2.60155 28.7721 2.51736 28.532 2.65367C28.2918 2.78997 28.2076 3.09516 28.3439 3.33531L30.3183 6.81406L26.8396 8.78848C26.5994 8.92478 26.5153 9.22997 26.6516 9.47013C26.7879 9.71028 27.0931 9.79447 27.3332 9.65817L31.2468 7.43694ZM28.4269 6.29229L28.294 6.77429L30.867 7.48409L31 7.0021L31.133 6.5201L28.5599 5.81029L28.4269 6.29229ZM7.59396 11.5905L7.94103 11.9504C13.334 6.74973 21.0717 4.78192 28.294 6.77429L28.4269 6.29229L28.5599 5.81029C20.9969 3.72395 12.8943 5.78458 7.24688 11.2306L7.59396 11.5905Z" fill="white"/>
<path d="M2.47978 24.1037C2.21093 24.1668 2.04411 24.4359 2.10718 24.7047L3.13487 29.0858C3.19794 29.3546 3.467 29.5214 3.73585 29.4584C4.00469 29.3953 4.17151 29.1262 4.10844 28.8574L3.19494 24.9631L7.08923 24.0496C7.35807 23.9865 7.52489 23.7175 7.46183 23.4486C7.39876 23.1798 7.1297 23.013 6.86085 23.076L2.47978 24.1037ZM47 36.5021C47.2761 36.5021 47.5 36.2782 47.5 36.0021C47.5 35.7259 47.2761 35.5021 47 35.5021L47 36.5021ZM42.6566 36.0021L42.6566 36.5021L47 36.5021L47 36.0021L47 35.5021L42.6566 35.5021L42.6566 36.0021ZM2.59396 24.5905L2.3305 25.0155C14.441 32.5239 28.4073 36.5021 42.6566 36.5021L42.6566 36.0021L42.6566 35.5021C28.5935 35.5021 14.8097 31.5759 2.85743 24.1656L2.59396 24.5905Z" fill="white"/>
<path d="M38.2414 29.1702L41.3841 32.3222" stroke="white" stroke-linecap="round"/>
<path d="M41.1427 29.0021L38 32.154" stroke="white" stroke-linecap="round"/>
</svg>
