<svg width="41" height="28" viewBox="0 0 41 28" fill="none" xmlns="http://www.w3.org/2000/svg">
<circle cx="2.5" cy="16.5" r="2.25" stroke="#7F1BA2" stroke-width="0.5"/>
<mask id="path-2-inside-1_5_13" fill="white">
<path d="M40.2678 27.2678C39.8492 27.6864 39.2956 27.9429 38.7056 27.9915C38.1156 28.0402 37.5275 27.8779 37.0459 27.5336C36.5643 27.1893 36.2206 26.6852 36.0759 26.1112C35.9311 25.5371 35.9948 24.9304 36.2556 24.3989C36.5163 23.8674 36.9572 23.4457 37.4997 23.2088C38.0423 22.972 38.6513 22.9353 39.2183 23.1054C39.7854 23.2755 40.2736 23.6413 40.5962 24.1377C40.9188 24.6341 41.0548 25.2289 40.9799 25.8161L40.441 25.7474C40.4996 25.2878 40.3932 24.8223 40.1407 24.4338C39.8882 24.0452 39.506 23.7589 39.0622 23.6258C38.6184 23.4927 38.1418 23.5213 37.7171 23.7067C37.2925 23.8921 36.9474 24.2222 36.7433 24.6382C36.5392 25.0542 36.4894 25.5291 36.6027 25.9784C36.7159 26.4277 36.985 26.8222 37.3619 27.0917C37.7388 27.3612 38.1991 27.4882 38.6609 27.4501C39.1227 27.412 39.556 27.2113 39.8836 26.8836L40.2678 27.2678Z"/>
</mask>
<path d="M40.2678 27.2678C39.8492 27.6864 39.2956 27.9429 38.7056 27.9915C38.1156 28.0402 37.5275 27.8779 37.0459 27.5336C36.5643 27.1893 36.2206 26.6852 36.0759 26.1112C35.9311 25.5371 35.9948 24.9304 36.2556 24.3989C36.5163 23.8674 36.9572 23.4457 37.4997 23.2088C38.0423 22.972 38.6513 22.9353 39.2183 23.1054C39.7854 23.2755 40.2736 23.6413 40.5962 24.1377C40.9188 24.6341 41.0548 25.2289 40.9799 25.8161L40.441 25.7474C40.4996 25.2878 40.3932 24.8223 40.1407 24.4338C39.8882 24.0452 39.506 23.7589 39.0622 23.6258C38.6184 23.4927 38.1418 23.5213 37.7171 23.7067C37.2925 23.8921 36.9474 24.2222 36.7433 24.6382C36.5392 25.0542 36.4894 25.5291 36.6027 25.9784C36.7159 26.4277 36.985 26.8222 37.3619 27.0917C37.7388 27.3612 38.1991 27.4882 38.6609 27.4501C39.1227 27.412 39.556 27.2113 39.8836 26.8836L40.2678 27.2678Z" stroke="#7F1BA2" mask="url(#path-2-inside-1_5_13)"/>
<path d="M7.34221 12.1564C7.10362 12.2955 7.02293 12.6016 7.16197 12.8402C7.30101 13.0787 7.60713 13.1594 7.84572 13.0204L7.34221 12.1564ZM35.4936 22.0272C35.7431 22.1454 36.0413 22.0389 36.1595 21.7894L38.0859 17.7226C38.2041 17.473 38.0976 17.1749 37.848 17.0567C37.5985 16.9384 37.3003 17.0449 37.1821 17.2945L35.4698 20.9094L31.8548 19.1971C31.6053 19.0789 31.3071 19.1854 31.1889 19.4349C31.0707 19.6845 31.1772 19.9826 31.4268 20.1008L35.4936 22.0272ZM7.59396 12.5884L7.84572 13.0204L9.19317 12.2351L8.94142 11.8031L8.68966 11.3712L7.34221 12.1564L7.59396 12.5884ZM8.94142 11.8031L9.19317 12.2351C18.9371 6.55667 31.4436 11.1227 35.2367 21.7435L35.7076 21.5753L36.1785 21.4072C32.1748 10.197 18.9743 5.37756 8.68966 11.3712L8.94142 11.8031Z" fill="#941DB7"/>
<path d="M24.2415 2.16815L27.3841 5.32008" stroke="#941DB7" stroke-linecap="round"/>
<path d="M27.1427 2L24 5.15193" stroke="#941DB7" stroke-linecap="round"/>
</svg>
